<svg width="24" height="24" viewBox="0 0 24 24" fill="none" xmlns="http://www.w3.org/2000/svg">
<path d="M11.9998 2.75C8.3098 2.75 5.2998 5.76 5.2998 9.45C5.2998 14.03 11.2998 20.77 11.5498 21.05C11.7898 21.32 12.2098 21.32 12.4498 21.05C12.7098 20.77 18.6998 14.03 18.6998 9.45C18.6998 5.76 15.6898 2.75 11.9998 2.75Z" stroke="#08051B" stroke-width="1.5" stroke-linecap="round" stroke-linejoin="round"/>
<path d="M12.3734 11.7903C13.6661 11.5846 14.5472 10.3698 14.3415 9.07715C14.1357 7.78446 12.921 6.90334 11.6283 7.1091C10.3356 7.31486 9.45443 8.52959 9.66019 9.82227C9.86595 11.115 11.0807 11.9961 12.3734 11.7903Z" stroke="#08051B" stroke-width="1.5" stroke-linecap="round" stroke-linejoin="round"/>
</svg>
