<svg width="24" height="25" viewBox="0 0 24 25" fill="none" xmlns="http://www.w3.org/2000/svg">
<path d="M3.78003 12.7732H9.95003V22.0983H5.96004C4.76004 22.0983 3.78003 21.1082 3.78003 19.8959V12.7732Z" stroke="black" stroke-width="1.5" stroke-linecap="round" stroke-linejoin="round"/>
<path d="M20.22 12.7732V19.8959C20.22 21.1082 19.24 22.0983 18.04 22.0983H14.05V12.7732H20.22Z" stroke="black" stroke-width="1.5" stroke-linecap="round" stroke-linejoin="round"/>
<path d="M4.63 7.56006H9.94V12.7733H2.75V9.45944C2.75 8.40872 3.59 7.56006 4.63 7.56006Z" stroke="black" stroke-width="1.5" stroke-linecap="round" stroke-linejoin="round"/>
<path d="M21.2501 9.45944V12.7733H14.0601V7.56006H19.3701C20.4101 7.56006 21.2501 8.40872 21.2501 9.45944Z" stroke="black" stroke-width="1.5" stroke-linecap="round" stroke-linejoin="round"/>
<path d="M14.0499 7.56006H9.93994V22.0984H14.0499V7.56006Z" stroke="black" stroke-width="1.5" stroke-linecap="round" stroke-linejoin="round"/>
<path d="M14.0499 22.0984H9.93994V22.1184H14.0499V22.0984Z" fill="black" stroke="black" stroke-width="1.5" stroke-linecap="round" stroke-linejoin="round"/>
<path d="M12.0199 5.49899C12.0199 6.07487 11.7899 6.59012 11.4199 6.96394C11.0499 7.33775 10.5399 7.57012 9.96992 7.57012H9.93992C9.38992 7.56002 8.87992 7.32765 8.51992 6.96394C8.14992 6.59012 7.91992 6.07487 7.91992 5.49899C7.91992 4.35734 8.82992 3.42786 9.96992 3.42786C10.5399 3.42786 11.0499 3.66023 11.4199 4.03404C11.7899 4.40786 12.0199 4.92311 12.0199 5.49899Z" stroke="black" stroke-width="1.5" stroke-linecap="round" stroke-linejoin="round"/>
<path d="M14.1 3.42786C12.97 3.42786 12.05 4.35734 12.05 5.49899C12.05 6.64064 12.97 7.57012 14.1 7.57012C15.23 7.57012 16.15 6.64064 16.15 5.49899C16.15 4.35734 15.23 3.42786 14.1 3.42786Z" stroke="black" stroke-width="1.5" stroke-linecap="round" stroke-linejoin="round"/>
</svg>
